<?xml version="1.0" encoding="UTF-8"?>
<svg xmlns="http://www.w3.org/2000/svg" xmlns:xlink="http://www.w3.org/1999/xlink" width="602" height="460" viewBox="0 0 602 460">
<path fill-rule="nonzero" fill="rgb(94.1%, 92.9%, 88.6%)" fill-opacity="1" d="M 569.484375 1.285156 L 31.691406 1.285156 C 14.742188 1.285156 1 15.027344 1 31.976562 L 1 424.734375 C 1 441.683594 14.742188 455.425781 31.691406 455.425781 L 569.484375 455.425781 C 586.4375 455.425781 600.179688 441.683594 600.179688 424.734375 L 600.179688 31.976562 C 600.179688 15.027344 586.4375 1.285156 569.484375 1.285156 "/>
<path fill-rule="nonzero" fill="rgb(86.7%, 85.9%, 81.6%)" fill-opacity="1" d="M 547.785156 437.277344 C 563.316406 437.277344 575.90625 424.691406 575.90625 409.15625 L 575.90625 49.304688 C 575.90625 33.773438 563.316406 21.183594 547.785156 21.183594 L 301.410156 21.183594 L 301.410156 437.277344 L 547.785156 437.277344 "/>
<path fill-rule="nonzero" fill="rgb(42.7%, 63%, 63%)" fill-opacity="1" d="M 289.277344 344.789062 L 227.925781 272.160156 C 220.003906 262.78125 200.195312 262.78125 192.273438 272.160156 L 10.59375 417.421875 C 2.671875 426.800781 12.574219 438.527344 28.421875 438.527344 L 302.203125 438.527344 L 302.203125 360.097656 L 289.277344 344.789062 "/>
<path fill-rule="nonzero" fill="rgb(34.5%, 50.9%, 50.5%)" fill-opacity="1" d="M 593.035156 409.1875 L 481.441406 207.246094 C 470.425781 194.207031 442.890625 194.207031 431.875 207.246094 L 346.585938 308.214844 L 302.484375 360.429688 L 302.453125 360.390625 L 302.203125 360.097656 L 302.203125 438.527344 L 571.523438 438.527344 C 593.554688 438.527344 604.050781 422.226562 593.035156 409.1875 "/>
<path fill-rule="nonzero" fill="rgb(90.2%, 72.8%, 34.9%)" fill-opacity="1" d="M 119.425781 173.417969 C 119.425781 196.910156 138.472656 215.960938 161.964844 215.960938 L 161.964844 130.875 C 138.472656 130.875 119.425781 149.921875 119.425781 173.417969 "/>
<path fill-rule="nonzero" fill="rgb(78.1%, 63.4%, 30.9%)" fill-opacity="1" d="M 161.964844 130.875 L 161.964844 215.960938 C 185.460938 215.960938 204.503906 196.910156 204.503906 173.417969 C 204.503906 149.921875 185.460938 130.875 161.964844 130.875 "/>
<path fill-rule="nonzero" fill="rgb(30.5%, 30.9%, 31.7%)" fill-opacity="1" d="M 55.039062 437.277344 C 39.507812 437.277344 26.917969 424.691406 26.917969 409.15625 L 26.917969 49.304688 C 26.917969 33.773438 39.507812 21.183594 55.039062 21.183594 L 301.410156 21.183594 L 301.410156 4.574219 L 32.511719 4.574219 C 15.5625 4.574219 1.820312 18.3125 1.820312 35.265625 L 1.820312 428.019531 C 1.820312 444.96875 15.5625 458.714844 32.511719 458.714844 L 301.410156 458.714844 L 301.410156 437.277344 L 55.039062 437.277344 "/>
<path fill-rule="nonzero" fill="rgb(25%, 25%, 25.8%)" fill-opacity="1" d="M 570.308594 4.574219 L 301.410156 4.574219 L 301.410156 21.183594 L 547.785156 21.183594 C 563.316406 21.183594 575.90625 33.773438 575.90625 49.304688 L 575.90625 409.15625 C 575.90625 424.691406 563.316406 437.277344 547.785156 437.277344 L 301.410156 437.277344 L 301.410156 458.714844 L 570.308594 458.714844 C 587.257812 458.714844 601 444.96875 601 428.019531 L 601 35.265625 C 601 18.3125 587.257812 4.574219 570.308594 4.574219 "/>
</svg>
